<svg width="39" height="32" viewBox="0 0 39 32" fill="none" xmlns="http://www.w3.org/2000/svg">
<path d="M10.3872 4.24032V26.8435C10.3872 27.2132 10.617 27.538 10.9568 27.6579L19.1407 30.4908C19.6803 30.6757 20.2399 30.266 20.2399 29.6764V1.82211C20.2399 1.25254 19.7103 0.837846 19.1757 0.997728L10.9918 3.41593C10.632 3.52085 10.3872 3.8606 10.3872 4.24032Z" fill="#868686"/>
<path d="M19.6104 31.5C19.4505 31.5 19.2906 31.475 19.1408 31.4251L10.5072 28.5222C9.90262 28.3174 9.49792 27.7528 9.49792 27.1183V3.96047C9.49792 3.30096 9.9376 2.71639 10.5721 2.53653L19.2057 0.0583683C19.6554 -0.0715351 20.13 0.0183982 20.5047 0.29819C20.8795 0.582979 21.0943 1.01266 21.0943 1.48231V30.0211C21.0943 30.4957 20.8645 30.9454 20.4798 31.2252C20.22 31.4051 19.9152 31.5 19.6104 31.5ZM19.6154 1.20252C19.5904 1.20252 19.5654 1.20751 19.5355 1.21251L10.9019 3.69067C10.782 3.72564 10.702 3.83556 10.702 3.96047V27.1183C10.702 27.2382 10.777 27.3431 10.8919 27.3831L19.5205 30.2859C19.6404 30.3259 19.7303 30.2809 19.7703 30.2459C19.8153 30.216 19.8852 30.146 19.8852 30.0211V1.48231C19.8852 1.3624 19.8153 1.29245 19.7753 1.25748C19.7453 1.23749 19.6903 1.20252 19.6154 1.20252Z" fill="black"/>
<path d="M27.9842 29.2067H22.9629V28.0026H27.6444V3.13111H22.9629V1.927H27.9842C28.4638 1.927 28.8485 2.31172 28.8485 2.79136V28.3424C28.8485 28.817 28.4588 29.2067 27.9842 29.2067Z" fill="black"/>
<path d="M37.3772 18.3598H13.2401V12.7639H37.3972C37.8019 12.7639 38.1316 13.0187 38.1316 13.4984V17.6103C38.1366 18.025 37.8968 18.3747 37.3772 18.3598Z" fill="black"/>
<path d="M13.2552 18.3447H0.934339C0.604584 18.3947 0.189893 18.1399 0.249848 17.6503V13.4884C0.21987 13.1186 0.444703 12.7689 0.934339 12.7939H13.2502V18.3447H13.2552Z" fill="#C30000"/>
<path d="M16.4029 15.5518L17.7369 13.968H18.2315V17.1756H17.8668V14.3777L16.4029 16.1164L14.9389 14.3777V17.1756H14.5742V13.968H15.0689L16.4029 15.5518ZM19.1708 13.968H21.3092C21.4591 13.968 21.584 14.018 21.6889 14.1229C21.7939 14.2278 21.8438 14.3527 21.8438 14.5026V16.641C21.8438 16.7909 21.7939 16.9158 21.6889 17.0207C21.584 17.1257 21.4591 17.1756 21.3092 17.1756H19.1708C19.0209 17.1756 18.896 17.1257 18.7911 17.0207C18.6862 16.9158 18.6362 16.7909 18.6362 16.641V14.5026C18.6362 14.3527 18.6862 14.2278 18.7911 14.1229C18.896 14.018 19.0209 13.968 19.1708 13.968ZM19.1758 16.8059H21.3092C21.3542 16.8059 21.3991 16.7909 21.4291 16.7559C21.4641 16.721 21.4791 16.681 21.4791 16.636V14.5026C21.4791 14.4576 21.4641 14.4127 21.4291 14.3827C21.3941 14.3477 21.3542 14.3327 21.3092 14.3327H19.1758C19.1308 14.3327 19.0859 14.3477 19.0559 14.3827C19.0209 14.4177 19.0059 14.4576 19.0059 14.5026V16.631C19.0059 16.676 19.0209 16.721 19.0559 16.7509C19.0859 16.7909 19.1258 16.8059 19.1758 16.8059ZM25.0914 13.968H25.4561V17.1756H25.0914V15.7517H22.6182V17.1706H22.2535V13.963H22.6182V15.382H25.0914V13.968ZM25.8658 13.968H29.0784V14.3327H27.6595V17.1756H27.2948V14.3327H25.8658V13.968ZM30.0177 13.968H32.1611C32.311 13.968 32.4359 14.018 32.5409 14.1229C32.6458 14.2278 32.6957 14.3527 32.6957 14.5026V17.1756H32.331V16.0015H29.8529V17.1706H29.4881V14.5026C29.4881 14.3527 29.5381 14.2278 29.643 14.1229C29.7429 14.018 29.8678 13.968 30.0177 13.968ZM29.8479 15.6368H32.326V14.5026C32.326 14.4576 32.311 14.4127 32.2761 14.3827C32.2411 14.3477 32.2011 14.3327 32.1562 14.3327H30.0227C29.9778 14.3327 29.9328 14.3477 29.9028 14.3827C29.8678 14.4177 29.8529 14.4576 29.8529 14.5026V15.6368H29.8479ZM34.5943 15.387H34.8092V13.968H35.1739V15.387H35.3887L36.2681 13.968H36.7477L35.7135 15.5718L36.7477 17.1756H36.2681L35.3887 15.7517H35.1739V17.1706H34.8092V15.7517H34.5943L33.5801 17.1706H33.1054L34.2696 15.5668L33.1004 13.963H33.5801L34.5943 15.387Z" fill="white"/>
<path d="M1.59375 13.963H4.26676C4.41665 13.963 4.54156 14.013 4.64648 14.1179C4.7514 14.2228 4.80137 14.3477 4.80137 14.4976V15.4369C4.80137 15.5868 4.7514 15.7117 4.64648 15.8166C4.54156 15.9215 4.41665 15.9715 4.26676 15.9715H2.13335C2.10837 15.9715 2.04841 15.9665 1.95848 15.9515V17.1606H1.59375V13.963ZM4.44163 15.4369V14.5026C4.44163 14.4576 4.42664 14.4127 4.39167 14.3827C4.3567 14.3477 4.31673 14.3327 4.27176 14.3327H2.13335C2.08838 14.3327 2.04342 14.3477 2.01344 14.3827C1.97846 14.4177 1.96348 14.4576 1.96348 14.5026V15.4369C1.96348 15.4819 1.97846 15.5218 2.01344 15.5568C2.04841 15.5918 2.08838 15.6068 2.13335 15.6068H4.26676C4.31173 15.6068 4.3567 15.5918 4.38667 15.5568C4.42165 15.5268 4.44163 15.4869 4.44163 15.4369ZM8.31875 14.4976V15.4369C8.31875 15.5868 8.26879 15.7117 8.16387 15.8166C8.05895 15.9215 7.93404 15.9715 7.78415 15.9715H7.29451L8.29877 17.1656H7.82412L6.82486 15.9715H5.65073C5.62575 15.9715 5.5658 15.9665 5.47586 15.9515V17.1606H5.11114V13.958H7.78415C7.93404 13.958 8.05895 14.008 8.16387 14.1129C8.26879 14.2228 8.31875 14.3477 8.31875 14.4976ZM5.65073 15.6068H7.78415C7.82912 15.6068 7.87408 15.5918 7.90406 15.5568C7.93903 15.5218 7.95402 15.4819 7.95402 15.4369V14.5026C7.95402 14.4576 7.93903 14.4127 7.90406 14.3827C7.86909 14.3477 7.82912 14.3327 7.78415 14.3327H5.65073C5.60577 14.3327 5.5608 14.3477 5.53082 14.3827C5.49585 14.4177 5.48086 14.4576 5.48086 14.5026V15.4369C5.48086 15.4819 5.49585 15.5218 5.53082 15.5568C5.5608 15.5918 5.60577 15.6068 5.65073 15.6068ZM9.31801 13.958H11.4564C11.6063 13.958 11.7312 14.008 11.8361 14.1129C11.9411 14.2178 11.991 14.3427 11.991 14.4926V16.631C11.991 16.7809 11.9411 16.9058 11.8361 17.0107C11.7312 17.1157 11.6063 17.1656 11.4564 17.1656H9.31801C9.16812 17.1656 9.04321 17.1157 8.93829 17.0107C8.83337 16.9058 8.78341 16.7809 8.78341 16.631V14.4926C8.78341 14.3427 8.83337 14.2178 8.93829 14.1129C9.04321 14.013 9.16812 13.958 9.31801 13.958ZM9.323 16.8009H11.4564C11.5014 16.8009 11.5464 16.7859 11.5763 16.7509C11.6113 16.716 11.6263 16.676 11.6263 16.631V14.5026C11.6263 14.4576 11.6113 14.4127 11.5763 14.3827C11.5414 14.3477 11.5014 14.3327 11.4564 14.3327H9.323C9.27804 14.3327 9.23307 14.3477 9.20309 14.3827C9.16812 14.4177 9.15313 14.4576 9.15313 14.5026V16.631C9.15313 16.676 9.16812 16.721 9.20309 16.7509C9.23307 16.7809 9.27304 16.8009 9.323 16.8009Z" fill="white"/>
<path d="M37.4921 18.5946H0.849369C0.379718 18.5946 0 18.2149 0 17.7452V13.3984C0 12.9288 0.379718 12.5491 0.849369 12.5491H37.4971C37.9668 12.5491 38.3465 12.9288 38.3465 13.3984V17.7452C38.3465 18.2099 37.9618 18.5946 37.4921 18.5946ZM0.849369 12.7939C0.519614 12.7939 0.249814 13.0637 0.249814 13.3934V17.7402C0.249814 18.07 0.519614 18.3398 0.849369 18.3398H37.4971C37.8269 18.3398 38.0967 18.07 38.0967 17.7402V13.3934C38.0967 13.0637 37.8269 12.7939 37.4971 12.7939H0.849369Z" fill="black"/>
</svg>
